<svg 
    xmlns="http://www.w3.org/2000/svg" 
    style="display: none;">
    <symbol id="angle-down" width="8" height="5" viewBox="0 0 30.727 30.727">
        <title>angle-down</title>
        <path d="M29.994,10.183L15.363,24.812L0.733,10.184c-0.977-0.978-0.977-2.561,0-3.536c0.977-0.977,2.559-0.976,3.536,0 l11.095,11.093L26.461,6.647c0.977-0.976,2.559-0.976,3.535,0C30.971,7.624,30.971,9.206,29.994,10.183z"/>
    </symbol>

    <symbol id="search" viewBox="-1 0 136 136.21852">
        <title>magnifying-glass</title>
        <path d="M 93.148438 80.832031 C 109.5 57.742188 104.03125 25.769531 80.941406 9.421875 C 57.851562 -6.925781 25.878906 -1.460938 9.53125 21.632812 C -6.816406 44.722656 -1.351562 76.691406 21.742188 93.039062 C 38.222656 104.707031 60.011719 105.605469 77.394531 95.339844 L 115.164062 132.882812 C 119.242188 137.175781 126.027344 137.347656 130.320312 133.269531 C 134.613281 129.195312 134.785156 122.410156 130.710938 118.117188 C 130.582031 117.980469 130.457031 117.855469 130.320312 117.726562 Z M 51.308594 84.332031 C 33.0625 84.335938 18.269531 69.554688 18.257812 51.308594 C 18.253906 33.0625 33.035156 18.269531 51.285156 18.261719 C 69.507812 18.253906 84.292969 33.011719 84.328125 51.234375 C 84.359375 69.484375 69.585938 84.300781 51.332031 84.332031 C 51.324219 84.332031 51.320312 84.332031 51.308594 84.332031 Z M 51.308594 84.332031 "/>
    </symbol>
    
    <symbol id="people" viewBox="0 0 505.4 505.4">
        <title>group</title>
        <path d="M437.1,233.45c14.8-10.4,24.6-27.7,24.6-47.2c0-31.9-25.8-57.7-57.7-57.7c-31.9,0-57.7,25.8-57.7,57.7 c0,19.5,9.7,36.8,24.6,47.2c-12.7,4.4-24.3,11.2-34.1,20c-13.5-11.5-29.4-20.3-46.8-25.5c21.1-12.8,35.3-36.1,35.3-62.6 c0-40.4-32.7-73.1-73.1-73.1c-40.4,0-73.1,32.8-73.1,73.1c0,26.5,14.1,49.8,35.3,62.6c-17.2,5.2-32.9,13.9-46.3,25.2 c-9.8-8.6-21.2-15.3-33.7-19.6c14.8-10.4,24.6-27.7,24.6-47.2c0-31.9-25.8-57.7-57.7-57.7s-57.7,25.8-57.7,57.7 c0,19.5,9.7,36.8,24.6,47.2C28.5,247.25,0,284.95,0,329.25v6.6c0,0.2,0.2,0.4,0.4,0.4h122.3c-0.7,5.5-1.1,11.2-1.1,16.9v6.8 c0,29.4,23.8,53.2,53.2,53.2h155c29.4,0,53.2-23.8,53.2-53.2v-6.8c0-5.7-0.4-11.4-1.1-16.9H505c0.2,0,0.4-0.2,0.4-0.4v-6.6 C505.2,284.85,476.8,247.15,437.1,233.45z M362.3,186.15c0-23,18.7-41.7,41.7-41.7s41.7,18.7,41.7,41.7 c0,22.7-18.3,41.2-40.9,41.7c-0.3,0-0.5,0-0.8,0s-0.5,0-0.8,0C380.5,227.45,362.3,208.95,362.3,186.15z M194.9,165.35 c0-31.5,25.6-57.1,57.1-57.1s57.1,25.6,57.1,57.1c0,30.4-23.9,55.3-53.8,57c-1.1,0-2.2,0-3.3,0c-1.1,0-2.2,0-3.3,0 C218.8,220.65,194.9,195.75,194.9,165.35z M59.3,186.15c0-23,18.7-41.7,41.7-41.7s41.7,18.7,41.7,41.7c0,22.7-18.3,41.2-40.9,41.7 c-0.3,0-0.5,0-0.8,0s-0.5,0-0.8,0C77.6,227.45,59.3,208.95,59.3,186.15z M125.5,320.15H16.2c4.5-42.6,40.5-76,84.2-76.3 c0.2,0,0.4,0,0.6,0s0.4,0,0.6,0c20.8,0.1,39.8,7.8,54.5,20.3C141.7,279.75,131,298.95,125.5,320.15z M366.8,359.95 c0,20.5-16.7,37.2-37.2,37.2h-155c-20.5,0-37.2-16.7-37.2-37.2v-6.8c0-62.1,49.6-112.9,111.3-114.7c1.1,0.1,2.3,0.1,3.4,0.1 s2.3,0,3.4-0.1c61.7,1.8,111.3,52.6,111.3,114.7V359.95z M378.7,320.15c-5.5-21.1-16-40-30.3-55.6c14.8-12.8,34-20.5,55-20.7 c0.2,0,0.4,0,0.6,0s0.4,0,0.6,0c43.7,0.3,79.7,33.7,84.2,76.3H378.7z"/>
    </symbol>

</svg>