<!-- Generated by IcoMoon.io -->
<svg version="1.1" xmlns="http://www.w3.org/2000/svg" width="32" height="32" viewBox="0 0 32 32">
<title>people</title>
<path fill="#fff" d="M19.493 15.187c1.51-1.113 2.412-2.889 2.412-4.75 0-3.255-2.648-5.903-5.904-5.903s-5.903 2.648-5.903 5.903c0 1.887 0.878 3.617 2.408 4.747-6.021 2.129-6.96 9.474-7.105 11.675-0.001 0.011-0.001 0.024-0.001 0.036 0 0.316 0.256 0.573 0.572 0.574h20.060c0.316-0 0.572-0.257 0.572-0.573 0-0.013-0-0.026-0.001-0.039l0 0.002c-0.145-2.196-1.087-9.53-7.11-11.672z"></path>
<path fill="#fff" d="M27.311 15.464c0.997-0.735 1.591-1.907 1.591-3.136 0-2.148-1.748-3.896-3.896-3.896-0.616 0-1.197 0.148-1.716 0.404 0.111 0.481 0.175 1.033 0.175 1.6 0 0 0 0.001 0 0.001v-0c0 1.544-0.49 3.042-1.365 4.286 3.448 2.169 4.944 5.963 5.592 8.847h3.935c0.104 0 0.204-0.043 0.276-0.119 0.063-0.068 0.101-0.158 0.101-0.258 0-0.009-0-0.017-0.001-0.026l0 0.001c-0.095-1.451-0.716-6.291-4.691-7.705zM9.892 14.724c-0.876-1.237-1.354-2.719-1.354-4.286 0-0.55 0.062-1.085 0.175-1.601-0.5-0.254-1.090-0.403-1.715-0.404h-0c-2.148 0-3.896 1.748-3.896 3.896 0 1.246 0.579 2.388 1.589 3.134-3.974 1.405-4.594 6.254-4.69 7.706-0.001 0.008-0.001 0.017-0.001 0.026 0 0.208 0.168 0.376 0.376 0.376 0.001 0 0.002 0 0.002 0h3.932c0.646-2.884 2.139-6.681 5.582-8.846z"></path>
</svg>
