<svg xmlns="http://www.w3.org/2000/svg" width="32" height="32"><path fill="#fff" d="M19.493 15.187a5.93 5.93 0 002.412-4.75c0-3.255-2.648-5.903-5.904-5.903s-5.903 2.648-5.903 5.903c0 1.887.878 3.617 2.408 4.747-6.021 2.129-6.96 9.474-7.105 11.675l-.001.036c0 .316.256.573.572.574h20.06a.573.573 0 00.572-.573l-.001-.039v.002c-.145-2.196-1.087-9.53-7.11-11.672z"/><path fill="#fff" d="M27.311 15.464a3.913 3.913 0 001.591-3.136 3.9 3.9 0 00-3.896-3.896c-.616 0-1.197.148-1.716.404.111.481.175 1.033.175 1.6v.001c0 1.544-.49 3.042-1.365 4.286 3.448 2.169 4.944 5.963 5.592 8.847h3.935a.377.377 0 00.377-.377l-.001-.026v.001c-.095-1.451-.716-6.291-4.691-7.705zm-17.419-.74a7.38 7.38 0 01-1.354-4.286c0-.55.062-1.085.175-1.601a3.813 3.813 0 00-1.715-.404 3.9 3.9 0 00-3.896 3.896c0 1.246.579 2.388 1.589 3.134C.717 16.868.097 21.717.001 23.169L0 23.195c0 .208.168.376.376.376H4.31c.646-2.884 2.139-6.681 5.582-8.846z"/></svg>